<svg xmlns="http://www.w3.org/2000/svg" xmlns:xlink="http://www.w3.org/1999/xlink" width="1105pt" height="305pt" viewBox="0 0 1105.22 305"><g id="graph0" class="graph" transform="scale(1 1) rotate(0) translate(4 301)"><title>G</title><polygon fill="#fff" stroke="transparent" points="-4 4 -4 -301 1101.22 -301 1101.22 4 -4 4"/><g id="node1" class="node"><title>state</title><ellipse cx="695.075" cy="-279" fill="#ffffe0" stroke="#000" rx="34.394" ry="18"/><text x="695.075" y="-275.3" fill="#000" font-family="Bitstream Vera Sans" font-size="14" text-anchor="middle">state</text></g><g id="node2" class="node"><title>boundary</title><ellipse cx="370.075" cy="-192" fill="#ffffe0" stroke="#000" rx="55.491" ry="18"/><text x="370.075" y="-188.3" fill="#000" font-family="Bitstream Vera Sans" font-size="14" text-anchor="middle">boundary</text></g><g id="edge1" class="edge"><title>boundary-&gt;state</title><path fill="none" stroke="#000" d="M412.049,-203.9069C419.3852,-205.9589 426.9485,-208.0559 434.0751,-210 511.8625,-231.2197 602.9665,-255.0793 654.3624,-268.4483"/><polygon fill="none" stroke="#000" points="653.538 -271.85 664.096 -270.978 655.298 -265.075 653.538 -271.85"/><text x="570.075" y="-231.8" fill="#000" font-family="Times,serif" font-size="14" text-anchor="middle">is_a</text></g><g id="node3" class="node"><title>mesoscopic</title><ellipse cx="509.075" cy="-192" fill="#ffffe0" stroke="#000" rx="65.789" ry="18"/><text x="509.075" y="-188.3" fill="#000" font-family="Bitstream Vera Sans" font-size="14" text-anchor="middle">mesoscopic</text></g><g id="edge2" class="edge"><title>mesoscopic-&gt;state</title><path fill="none" stroke="#000" d="M542.3282,-207.5539C575.4246,-223.0344 626.0278,-246.7037 659.8119,-262.5059"/><polygon fill="none" stroke="#000" points="658.751 -265.874 669.292 -266.94 661.717 -259.533 658.751 -265.874"/><text x="628.075" y="-231.8" fill="#000" font-family="Times,serif" font-size="14" text-anchor="middle">is_a</text></g><g id="node4" class="node"><title>crystal_unit_cell</title><ellipse cx="353.075" cy="-105" fill="#ffffe0" stroke="#000" rx="84.485" ry="18"/><text x="353.075" y="-101.3" fill="#000" font-family="Bitstream Vera Sans" font-size="14" text-anchor="middle">crystal_unit_cell</text></g><g id="edge3" class="edge"><title>crystal_unit_cell-&gt;mesoscopic</title><path fill="none" stroke="#000" d="M383.5238,-121.981C408.618,-135.9758 444.3305,-155.8925 471.2558,-170.9084"/><polygon fill="none" stroke="#000" points="469.584 -173.983 480.022 -175.797 472.993 -167.87 469.584 -173.983"/><text x="455.075" y="-144.8" fill="#000" font-family="Times,serif" font-size="14" text-anchor="middle">is_a</text></g><g id="node16" class="node"><title>e-bonded_atom</title><ellipse cx="421.075" cy="-18" fill="#ffffe0" stroke="#000" rx="84.485" ry="18"/><text x="421.075" y="-14.3" fill="#000" font-family="Bitstream Vera Sans" font-size="14" text-anchor="middle">e-bonded_atom</text></g><g id="edge17" class="edge"><title>crystal_unit_cell-&gt;e-bonded_atom</title><path fill="none" stroke="#00f" d="M290.9978,-92.7406C279.1039,-90.6351 266.7273,-88.6102 255.0751,-87 233.7404,-84.0517 76.5801,-84.9207 62.0751,-69 57.5853,-64.0719 57.6024,-58.9436 62.0751,-54 62.646,-53.369 228.082,-36.985 334.147,-26.5399"/><polygon fill="#00f" stroke="#00f" points="334.61 -30.011 344.219 -25.548 333.924 -23.045 334.61 -30.011"/><text x="174.075" y="-57.8" fill="#000" font-family="Times,serif" font-size="14" text-anchor="middle">has_spatial_direct_part some</text></g><g id="node5" class="node"><title>molecule</title><ellipse cx="509.075" cy="-105" fill="#ffffe0" stroke="#000" rx="53.091" ry="18"/><text x="509.075" y="-101.3" fill="#000" font-family="Bitstream Vera Sans" font-size="14" text-anchor="middle">molecule</text></g><g id="edge4" class="edge"><title>molecule-&gt;mesoscopic</title><path fill="none" stroke="#000" d="M509.0751,-123.0265C509.0751,-134.8082 509.0751,-150.4393 509.0751,-163.8419"/><polygon fill="none" stroke="#000" points="505.575 -163.997 509.075 -173.997 512.575 -163.997 505.575 -163.997"/><text x="523.075" y="-144.8" fill="#000" font-family="Times,serif" font-size="14" text-anchor="middle">is_a</text></g><g id="edge18" class="edge"><title>molecule-&gt;e-bonded_atom</title><path fill="none" stroke="#00f" d="M469.6356,-92.793C461.8752,-90.6577 453.7574,-88.6086 446.0751,-87 416.8832,-80.8874 332.6995,-91.4592 313.0751,-69 297.7037,-51.4081 316.7797,-39.4226 342.9602,-31.516"/><polygon fill="#00f" stroke="#00f" points="344.165 -34.815 352.876 -28.785 342.306 -28.066 344.165 -34.815"/><text x="426.575" y="-57.8" fill="#000" font-family="Times,serif" font-size="14" text-anchor="middle">has_spatial_direct_part min 2</text></g><g id="node6" class="node"><title>continuum</title><ellipse cx="755.075" cy="-192" fill="#ffffe0" stroke="#000" rx="59.59" ry="18"/><text x="755.075" y="-188.3" fill="#000" font-family="Bitstream Vera Sans" font-size="14" text-anchor="middle">continuum</text></g><g id="edge5" class="edge"><title>continuum-&gt;state</title><path fill="none" stroke="#000" d="M742.6431,-210.0265C733.9449,-222.6388 722.2045,-239.6623 712.5641,-253.641"/><polygon fill="none" stroke="#000" points="709.675 -251.665 706.879 -261.885 715.437 -255.639 709.675 -251.665"/><text x="743.075" y="-231.8" fill="#000" font-family="Times,serif" font-size="14" text-anchor="middle">is_a</text></g><g id="node7" class="node"><title>phase</title><ellipse cx="790.075" cy="-105" fill="#ffffe0" stroke="#000" rx="38.993" ry="18"/><text x="790.075" y="-101.3" fill="#000" font-family="Bitstream Vera Sans" font-size="14" text-anchor="middle">phase</text></g><g id="edge6" class="edge"><title>phase-&gt;continuum</title><path fill="none" stroke="#000" d="M782.8231,-123.0265C777.9894,-135.0415 771.5453,-151.0599 766.0838,-164.6354"/><polygon fill="none" stroke="#000" points="762.803 -163.413 762.318 -173.997 769.297 -166.026 762.803 -163.413"/><text x="789.075" y="-144.8" fill="#000" font-family="Times,serif" font-size="14" text-anchor="middle">is_a</text></g><g id="node8" class="node"><title>rve</title><ellipse cx="874.075" cy="-105" fill="#ffffe0" stroke="#000" rx="27" ry="18"/><text x="874.075" y="-101.3" fill="#000" font-family="Bitstream Vera Sans" font-size="14" text-anchor="middle">rve</text></g><g id="edge7" class="edge"><title>rve-&gt;continuum</title><path fill="none" stroke="#000" d="M856.3239,-118.8583C842.9135,-129.2427 823.9899,-143.7167 807.0751,-156 800.9669,-160.4357 794.3892,-165.0853 788.0346,-169.514"/><polygon fill="none" stroke="#000" points="785.8 -166.804 779.573 -175.375 789.786 -172.558 785.8 -166.804"/><text x="839.075" y="-144.8" fill="#000" font-family="Times,serif" font-size="14" text-anchor="middle">is_a</text></g><g id="node9" class="node"><title>solid</title><ellipse cx="701.075" cy="-105" fill="#ffffe0" stroke="#000" rx="32.494" ry="18"/><text x="701.075" y="-101.3" fill="#000" font-family="Bitstream Vera Sans" font-size="14" text-anchor="middle">solid</text></g><g id="edge8" class="edge"><title>solid-&gt;continuum</title><path fill="none" stroke="#000" d="M711.7438,-122.1884C719.4088,-134.5376 729.8865,-151.4184 738.6187,-165.487"/><polygon fill="none" stroke="#000" points="735.811 -167.599 744.058 -174.25 741.758 -163.908 735.811 -167.599"/><text x="746.075" y="-144.8" fill="#000" font-family="Times,serif" font-size="14" text-anchor="middle">is_a</text></g><g id="node10" class="node"><title>crystal</title><ellipse cx="906.075" cy="-18" fill="#ffffe0" stroke="#000" rx="41.693" ry="18"/><text x="906.075" y="-14.3" fill="#000" font-family="Bitstream Vera Sans" font-size="14" text-anchor="middle">crystal</text></g><g id="edge19" class="edge"><title>crystal-&gt;crystal_unit_cell</title><path fill="none" stroke="#00f" d="M864.8491,-21.5189C805.3107,-27.0373 698.5082,-38.6971 663.0751,-54 653.198,-58.2657 654.0677,-65.0123 644.0751,-69 562.417,-101.5872 534.1332,-74.7176 447.0751,-87 439.4977,-88.069 431.6044,-89.336 423.7542,-90.6951"/><polygon fill="#00f" stroke="#00f" points="423.091 -87.258 413.861 -92.458 424.319 -94.149 423.091 -87.258"/><text x="771.575" y="-57.8" fill="#000" font-family="Times,serif" font-size="14" text-anchor="middle">has_spatial_direct_part only</text></g><g id="edge9" class="edge"><title>crystal-&gt;solid</title><path fill="none" stroke="#000" d="M902.9494,-36.1663C900.0282,-47.4209 894.4791,-61.1756 884.0751,-69 858.6537,-88.1182 772.7317,-78.5192 742.0751,-87 739.6494,-87.671 737.1816,-88.4602 734.721,-89.327"/><polygon fill="none" stroke="#000" points="733.419 -86.078 725.371 -92.968 735.96 -92.6 733.419 -86.078"/><text x="910.075" y="-57.8" fill="#000" font-family="Times,serif" font-size="14" text-anchor="middle">is_a</text></g><g id="node11" class="node"><title>fluid</title><ellipse cx="950.075" cy="-105" fill="#ffffe0" stroke="#000" rx="30.595" ry="18"/><text x="950.075" y="-101.3" fill="#000" font-family="Bitstream Vera Sans" font-size="14" text-anchor="middle">fluid</text></g><g id="edge10" class="edge"><title>fluid-&gt;continuum</title><path fill="none" stroke="#000" d="M928.7842,-117.9731C910.2539,-128.9463 882.4589,-144.6506 857.0751,-156 841.0326,-163.1727 823.0893,-169.9119 806.7784,-175.5761"/><polygon fill="none" stroke="#000" points="805.199 -172.417 796.865 -178.958 807.46 -179.042 805.199 -172.417"/><text x="899.075" y="-144.8" fill="#000" font-family="Times,serif" font-size="14" text-anchor="middle">is_a</text></g><g id="node12" class="node"><title>elementary</title><ellipse cx="897.075" cy="-192" fill="#ffffe0" stroke="#000" rx="64.189" ry="18"/><text x="897.075" y="-188.3" fill="#000" font-family="Bitstream Vera Sans" font-size="14" text-anchor="middle">elementary</text></g><g id="edge11" class="edge"><title>elementary-&gt;state</title><path fill="none" stroke="#000" d="M861.8894,-207.1542C825.2609,-222.9299 768.1777,-247.5152 731.2031,-263.4399"/><polygon fill="none" stroke="#000" points="729.601 -260.319 721.801 -267.489 732.37 -266.748 729.601 -260.319"/><text x="822.075" y="-231.8" fill="#000" font-family="Times,serif" font-size="14" text-anchor="middle">is_a</text></g><g id="node13" class="node"><title>subatomic</title><ellipse cx="1038.075" cy="-192" fill="#ffffe0" stroke="#000" rx="59.29" ry="18"/><text x="1038.075" y="-188.3" fill="#000" font-family="Bitstream Vera Sans" font-size="14" text-anchor="middle">subatomic</text></g><g id="edge12" class="edge"><title>subatomic-&gt;state</title><path fill="none" stroke="#000" d="M993.4671,-203.8774C985.6736,-205.9327 977.6407,-208.0385 970.0751,-210 887.2642,-231.4703 790.1447,-255.5908 736.313,-268.8672"/><polygon fill="none" stroke="#000" points="735.332 -265.504 726.46 -271.295 737.007 -272.301 735.332 -265.504"/><text x="908.075" y="-231.8" fill="#000" font-family="Times,serif" font-size="14" text-anchor="middle">is_a</text></g><g id="node14" class="node"><title>atomic</title><ellipse cx="635.075" cy="-192" fill="#ffffe0" stroke="#000" rx="42.494" ry="18"/><text x="635.075" y="-188.3" fill="#000" font-family="Bitstream Vera Sans" font-size="14" text-anchor="middle">atomic</text></g><g id="edge13" class="edge"><title>atomic-&gt;state</title><path fill="none" stroke="#000" d="M647.217,-209.6057C655.951,-222.27 667.86,-239.5381 677.6132,-253.6802"/><polygon fill="none" stroke="#000" points="674.801 -255.768 683.36 -262.012 680.563 -251.793 674.801 -255.768"/><text x="683.075" y="-231.8" fill="#000" font-family="Times,serif" font-size="14" text-anchor="middle">is_a</text></g><g id="node15" class="node"><title>atom</title><ellipse cx="615.075" cy="-105" fill="#ffffe0" stroke="#000" rx="35.194" ry="18"/><text x="615.075" y="-101.3" fill="#000" font-family="Bitstream Vera Sans" font-size="14" text-anchor="middle">atom</text></g><g id="edge14" class="edge"><title>atom-&gt;atomic</title><path fill="none" stroke="#000" d="M619.2191,-123.0265C621.9544,-134.9249 625.5922,-150.7492 628.6933,-164.2394"/><polygon fill="none" stroke="#000" points="625.285 -165.035 630.936 -173.997 632.107 -163.467 625.285 -165.035"/><text x="641.075" y="-144.8" fill="#000" font-family="Times,serif" font-size="14" text-anchor="middle">is_a</text></g><g id="edge15" class="edge"><title>e-bonded_atom-&gt;atom</title><path fill="none" stroke="#000" d="M477.7873,-31.3656C497.9542,-37.0968 520.4998,-44.6531 540.0751,-54 556.9021,-62.0346 574.2101,-73.5491 587.9535,-83.6047"/><polygon fill="none" stroke="#000" points="585.909 -86.447 596.014 -89.633 590.102 -80.841 585.909 -86.447"/><text x="581.075" y="-57.8" fill="#000" font-family="Times,serif" font-size="14" text-anchor="middle">is_a</text></g><g id="node17" class="node"><title>standalone_atom</title><ellipse cx="615.075" cy="-18" fill="#ffffe0" stroke="#000" rx="91.784" ry="18"/><text x="615.075" y="-14.3" fill="#000" font-family="Bitstream Vera Sans" font-size="14" text-anchor="middle">standalone_atom</text></g><g id="edge16" class="edge"><title>standalone_atom-&gt;atom</title><path fill="none" stroke="#000" d="M615.0751,-36.0265C615.0751,-47.8082 615.0751,-63.4393 615.0751,-76.8419"/><polygon fill="none" stroke="#000" points="611.575 -76.997 615.075 -86.997 618.575 -76.997 611.575 -76.997"/><text x="629.075" y="-57.8" fill="#000" font-family="Times,serif" font-size="14" text-anchor="middle">is_a</text></g><g id="node18" class="node"><title>welded_component</title><ellipse cx="125.075" cy="-18" fill="#ffffe0" stroke="#000" rx="102.082" ry="18"/><text x="125.075" y="-14.3" fill="#000" font-family="Bitstream Vera Sans" font-size="14" text-anchor="middle">welded_component</text></g><g id="edge20" class="edge"><title>welded_component-&gt;boundary</title><path fill="none" stroke="#00f" d="M81.9486,-34.5151C37.6619,-53.8996 -20.9807,-87.8829 8.0751,-123 45.0279,-167.6616 211.0429,-183.6682 304.8946,-189.2091"/><polygon fill="#00f" stroke="#00f" points="304.953 -192.718 315.135 -189.789 305.349 -185.729 304.953 -192.718"/><text x="134.075" y="-101.3" fill="#000" font-family="Times,serif" font-size="14" text-anchor="middle">has_spatial_direct_part exactly 2</text></g></g></svg>