<svg xmlns="http://www.w3.org/2000/svg" xmlns:xlink="http://www.w3.org/1999/xlink" width="1370pt" height="542pt" viewBox="0 0 1369.84 542"><g id="graph0" class="graph" transform="scale(1 1) rotate(0) translate(4 538)"><title>G</title><polygon fill="#fff" stroke="transparent" points="-4 4 -4 -538 1365.843 -538 1365.843 4 -4 4"/><g id="node1" class="node"><title>physical_quantity</title><ellipse cx="456.843" cy="-516" fill="#ffffe0" stroke="#000" rx="90.984" ry="18"/><text x="456.843" y="-512.3" fill="#000" font-family="Bitstream Vera Sans" font-size="14" text-anchor="middle">physical_quantity</text></g><g id="node2" class="node"><title>atomic_number</title><ellipse cx="83.843" cy="-429" fill="#ffffe0" stroke="#000" rx="83.685" ry="18"/><text x="83.843" y="-425.3" fill="#000" font-family="Bitstream Vera Sans" font-size="14" text-anchor="middle">atomic_number</text></g><g id="edge1" class="edge"><title>atomic_number-&gt;physical_quantity</title><path fill="none" stroke="#000" d="M140.8993,-442.3081C207.364,-457.8106 317.1095,-483.4081 388.1813,-499.9852"/><polygon fill="none" stroke="#000" points="387.411 -503.399 397.945 -502.262 389.001 -496.582 387.411 -503.399"/><text x="306.843" y="-468.8" fill="#000" font-family="Times,serif" font-size="14" text-anchor="middle">is_a</text></g><g id="node3" class="node"><title>position</title><ellipse cx="258.843" cy="-429" fill="#ffffe0" stroke="#000" rx="47.392" ry="18"/><text x="258.843" y="-425.3" fill="#000" font-family="Bitstream Vera Sans" font-size="14" text-anchor="middle">position</text></g><g id="edge2" class="edge"><title>position-&gt;physical_quantity</title><path fill="none" stroke="#000" d="M289.7504,-442.9854C312.6494,-453.3084 344.6401,-467.6491 372.8426,-480 384.5398,-485.1227 397.1848,-490.5826 409.0254,-495.6614"/><polygon fill="none" stroke="#000" points="407.745 -498.921 418.315 -499.639 410.5 -492.486 407.745 -498.921"/><text x="386.843" y="-468.8" fill="#000" font-family="Times,serif" font-size="14" text-anchor="middle">is_a</text></g><g id="node4" class="node"><title>area</title><ellipse cx="1141.843" cy="-375" fill="#ffffe0" stroke="#000" rx="32.494" ry="18"/><text x="1141.843" y="-371.3" fill="#000" font-family="Bitstream Vera Sans" font-size="14" text-anchor="middle">area</text></g><g id="edge3" class="edge"><title>area-&gt;physical_quantity</title><path fill="none" stroke="#000" d="M1114.803,-385.3827C1073.6891,-400.8176 992.7349,-429.8343 921.8426,-447 794.4163,-477.8547 643.805,-497.1566 549.286,-507.2548"/><polygon fill="none" stroke="#000" points="548.758 -503.791 539.181 -508.322 549.494 -510.752 548.758 -503.791"/><text x="1055.843" y="-425.3" fill="#000" font-family="Times,serif" font-size="14" text-anchor="middle">is_a</text></g><g id="node5" class="node"><title>pressure</title><ellipse cx="860.843" cy="-429" fill="#ffffe0" stroke="#000" rx="51.991" ry="18"/><text x="860.843" y="-425.3" fill="#000" font-family="Bitstream Vera Sans" font-size="14" text-anchor="middle">pressure</text></g><g id="edge4" class="edge"><title>pressure-&gt;physical_quantity</title><path fill="none" stroke="#000" d="M816.4518,-438.5594C746.9214,-453.5325 611.6768,-482.657 528.3115,-500.6094"/><polygon fill="none" stroke="#000" points="527.449 -497.215 518.41 -502.742 528.923 -504.058 527.449 -497.215"/><text x="697.843" y="-468.8" fill="#000" font-family="Times,serif" font-size="14" text-anchor="middle">is_a</text></g><g id="node6" class="node"><title>stiffness_tensor</title><ellipse cx="787.843" cy="-321" fill="#ffffe0" stroke="#000" rx="83.685" ry="18"/><text x="787.843" y="-317.3" fill="#000" font-family="Bitstream Vera Sans" font-size="14" text-anchor="middle">stiffness_tensor</text></g><g id="edge5" class="edge"><title>stiffness_tensor-&gt;pressure</title><path fill="none" stroke="#000" d="M799.897,-338.834C811.6792,-356.2652 829.7509,-383.0013 843.1594,-402.8386"/><polygon fill="none" stroke="#000" points="840.27 -404.815 848.77 -411.139 846.07 -400.894 840.27 -404.815"/><text x="848.843" y="-371.3" fill="#000" font-family="Times,serif" font-size="14" text-anchor="middle">is_a</text></g><g id="node7" class="node"><title>traction_separation</title><ellipse cx="1028.843" cy="-321" fill="#ffffe0" stroke="#000" rx="100.983" ry="18"/><text x="1028.843" y="-317.3" fill="#000" font-family="Bitstream Vera Sans" font-size="14" text-anchor="middle">traction_separation</text></g><g id="edge6" class="edge"><title>traction_separation-&gt;pressure</title><path fill="none" stroke="#000" d="M1001.8505,-338.3521C972.5158,-357.2101 925.6184,-387.3584 894.0485,-407.6533"/><polygon fill="none" stroke="#000" points="892.097 -404.747 885.578 -413.099 895.882 -410.635 892.097 -404.747"/><text x="982.843" y="-371.3" fill="#000" font-family="Times,serif" font-size="14" text-anchor="middle">is_a</text></g><g id="node8" class="node"><title>load_curve</title><ellipse cx="963.843" cy="-159" fill="#ffffe0" stroke="#000" rx="61.99" ry="18"/><text x="963.843" y="-155.3" fill="#000" font-family="Bitstream Vera Sans" font-size="14" text-anchor="middle">load_curve</text></g><g id="edge7" class="edge"><title>load_curve-&gt;pressure</title><path fill="none" stroke="#000" d="M956.9245,-177.1347C939.2602,-223.4393 892.4047,-346.2643 871.349,-401.4589"/><polygon fill="none" stroke="#000" points="868.025 -400.353 867.731 -410.944 874.565 -402.849 868.025 -400.353"/><text x="942.843" y="-263.3" fill="#000" font-family="Times,serif" font-size="14" text-anchor="middle">is_a</text></g><g id="node9" class="node"><title>lattice_vector</title><ellipse cx="356.843" cy="-267" fill="#ffffe0" stroke="#000" rx="73.387" ry="18"/><text x="356.843" y="-263.3" fill="#000" font-family="Bitstream Vera Sans" font-size="14" text-anchor="middle">lattice_vector</text></g><g id="edge8" class="edge"><title>lattice_vector-&gt;physical_quantity</title><path fill="none" stroke="#000" d="M364.1958,-285.3096C381.5753,-328.5846 425.2671,-437.3771 445.8249,-488.5661"/><polygon fill="none" stroke="#000" points="442.639 -490.024 449.613 -497.999 449.135 -487.415 442.639 -490.024"/><text x="420.843" y="-371.3" fill="#000" font-family="Times,serif" font-size="14" text-anchor="middle">is_a</text></g><g id="node10" class="node"><title>plasticity</title><ellipse cx="499.843" cy="-375" fill="#ffffe0" stroke="#000" rx="51.991" ry="18"/><text x="499.843" y="-371.3" fill="#000" font-family="Bitstream Vera Sans" font-size="14" text-anchor="middle">plasticity</text></g><g id="edge9" class="edge"><title>plasticity-&gt;physical_quantity</title><path fill="none" stroke="#000" d="M494.3091,-393.1446C486.9556,-417.2572 473.8934,-460.0893 465.2998,-488.2681"/><polygon fill="none" stroke="#000" points="461.924 -487.339 462.355 -497.925 468.62 -489.381 461.924 -487.339"/><text x="502.843" y="-425.3" fill="#000" font-family="Times,serif" font-size="14" text-anchor="middle">is_a</text></g><g id="node11" class="node"><title>e-bonded_atom</title><ellipse cx="213.843" cy="-321" fill="#ffffe0" stroke="#000" rx="84.485" ry="18"/><text x="213.843" y="-317.3" fill="#000" font-family="Bitstream Vera Sans" font-size="14" text-anchor="middle">e-bonded_atom</text></g><g id="edge10" class="edge"><title>e-bonded_atom-&gt;atomic_number</title><path fill="none" stroke="#00f" d="M133.2389,-326.4522C89.0904,-331.3017 40.6057,-340.3346 26.8426,-357 16.6542,-369.3368 19.1193,-378.9875 26.8426,-393 29.7018,-398.1877 33.6583,-402.7312 38.1664,-406.6825"/><polygon fill="#00f" stroke="#00f" points="36.101 -409.509 46.178 -412.782 40.342 -403.94 36.101 -409.509"/><text x="115.843" y="-371.3" fill="#000" font-family="Times,serif" font-size="14" text-anchor="middle">has_property exactly 1</text></g><g id="edge11" class="edge"><title>e-bonded_atom-&gt;position</title><path fill="none" stroke="#00f" d="M210.0243,-339.1233C207.752,-354.2943 206.695,-376.1107 214.8426,-393 217.3084,-398.1115 220.8863,-402.743 224.9523,-406.8523"/><polygon fill="#00f" stroke="#00f" points="222.855 -409.67 232.664 -413.676 227.494 -404.428 222.855 -409.67"/><text x="303.843" y="-371.3" fill="#000" font-family="Times,serif" font-size="14" text-anchor="middle">has_property exactly 1</text></g><g id="node12" class="node"><title>crystal_unit_cell</title><ellipse cx="650.843" cy="-105" fill="#ffffe0" stroke="#000" rx="84.485" ry="18"/><text x="650.843" y="-101.3" fill="#000" font-family="Bitstream Vera Sans" font-size="14" text-anchor="middle">crystal_unit_cell</text></g><g id="edge15" class="edge"><title>crystal_unit_cell-&gt;stiffness_tensor</title><path fill="none" stroke="#00f" d="M667.3229,-122.7404C671.8508,-128.2848 676.444,-134.6264 679.8426,-141 699.5528,-177.9645 675.9676,-203.8182 707.8426,-231 750.5508,-267.4201 796.0908,-206.5768 832.8426,-249 843.319,-261.0931 839.7736,-270.5791 832.8426,-285 830.7324,-289.3904 827.7973,-293.4129 824.4272,-297.0487"/><polygon fill="#00f" stroke="#00f" points="821.944 -294.579 817.024 -303.962 826.721 -299.695 821.944 -294.579"/><text x="796.843" y="-209.3" fill="#000" font-family="Times,serif" font-size="14" text-anchor="middle">has_property exactly 1</text></g><g id="edge14" class="edge"><title>crystal_unit_cell-&gt;lattice_vector</title><path fill="none" stroke="#00f" d="M583.3587,-115.9194C550.3859,-122.3084 515.016,-131.0652 501.8426,-141 465.1353,-168.6831 485.694,-201.0141 450.8426,-231 441.4352,-239.0941 430.0134,-245.4678 418.4189,-250.4528"/><polygon fill="#00f" stroke="#00f" points="417.112 -247.206 409.118 -254.159 419.704 -253.708 417.112 -247.206"/><text x="590.843" y="-155.3" fill="#000" font-family="Times,serif" font-size="14" text-anchor="middle">has_property exactly 3</text></g><g id="edge12" class="edge"><title>crystal_unit_cell-&gt;e-bonded_atom</title><path fill="none" stroke="#00f" d="M570.0724,-110.6076C458.9125,-120.143 267.4229,-143.708 222.8426,-195 199.7527,-221.5661 202.0772,-264.346 207.0251,-292.5679"/><polygon fill="#00f" stroke="#00f" points="203.636 -293.472 209.002 -302.607 210.504 -292.119 203.636 -293.472"/><text x="334.843" y="-209.3" fill="#000" font-family="Times,serif" font-size="14" text-anchor="middle">has_spatial_direct_part some</text></g><g id="node18" class="node"><title>interface</title><ellipse cx="1031.843" cy="-213" fill="#ffffe0" stroke="#000" rx="51.991" ry="18"/><text x="1031.843" y="-209.3" fill="#000" font-family="Bitstream Vera Sans" font-size="14" text-anchor="middle">interface</text></g><g id="edge13" class="edge"><title>crystal_unit_cell-&gt;interface</title><path fill="none" stroke="#00f" d="M681.8898,-121.7447C690.0405,-127.1395 698.3552,-133.6512 704.8426,-141 716.6812,-154.4107 708.1963,-166.7293 722.8426,-177 723.1602,-177.2228 882.4989,-195.7054 972.2111,-206.0968"/><polygon fill="#00f" stroke="#00f" points="971.924 -209.587 982.26 -207.261 972.729 -202.633 971.924 -209.587"/><text x="807.843" y="-155.3" fill="#000" font-family="Times,serif" font-size="14" text-anchor="middle">has_space_slice some</text></g><g id="node13" class="node"><title>crystal</title><ellipse cx="650.843" cy="-18" fill="#ffffe0" stroke="#000" rx="41.693" ry="18"/><text x="650.843" y="-14.3" fill="#000" font-family="Bitstream Vera Sans" font-size="14" text-anchor="middle">crystal</text></g><g id="edge16" class="edge"><title>crystal-&gt;crystal_unit_cell</title><path fill="none" stroke="#00f" d="M650.8426,-36.0265C650.8426,-47.8082 650.8426,-63.4393 650.8426,-76.8419"/><polygon fill="#00f" stroke="#00f" points="647.343 -76.997 650.843 -86.997 654.343 -76.997 647.343 -76.997"/><text x="759.343" y="-57.8" fill="#000" font-family="Times,serif" font-size="14" text-anchor="middle">has_spatial_direct_part only</text></g><g id="node14" class="node"><title>boundary</title><ellipse cx="1098.843" cy="-105" fill="#ffffe0" stroke="#000" rx="55.491" ry="18"/><text x="1098.843" y="-101.3" fill="#000" font-family="Bitstream Vera Sans" font-size="14" text-anchor="middle">boundary</text></g><g id="edge17" class="edge"><title>boundary-&gt;interface</title><path fill="none" stroke="#00f" d="M1087.7789,-122.834C1077.0136,-140.187 1060.5274,-166.7617 1048.2382,-186.5713"/><polygon fill="#00f" stroke="#00f" points="1045.22 -184.797 1042.923 -195.139 1051.169 -188.487 1045.22 -184.797"/><text x="1173.843" y="-155.3" fill="#000" font-family="Times,serif" font-size="14" text-anchor="middle">has_space_slice exactly 1</text></g><g id="node15" class="node"><title>phase</title><ellipse cx="593.843" cy="-213" fill="#ffffe0" stroke="#000" rx="38.993" ry="18"/><text x="593.843" y="-209.3" fill="#000" font-family="Bitstream Vera Sans" font-size="14" text-anchor="middle">phase</text></g><g id="edge18" class="edge"><title>phase-&gt;stiffness_tensor</title><path fill="none" stroke="#00f" d="M612.5296,-229.0071C618.9902,-234.9681 626.0546,-241.9939 631.8426,-249 643.9352,-263.6377 639.5379,-273.7634 654.8426,-285 665.2296,-292.6261 690.4296,-300.2093 716.1351,-306.4351"/><polygon fill="#00f" stroke="#00f" points="715.446 -309.868 725.982 -308.752 717.049 -303.055 715.446 -309.868"/><text x="743.843" y="-263.3" fill="#000" font-family="Times,serif" font-size="14" text-anchor="middle">has_property exactly 1</text></g><g id="edge19" class="edge"><title>phase-&gt;plasticity</title><path fill="none" stroke="#00f" d="M558.2439,-220.7542C516.7134,-229.9689 453.2423,-244.6457 449.8426,-249 426.0853,-279.4277 453.3007,-322.5926 475.9213,-349.6798"/><polygon fill="#00f" stroke="#00f" points="473.538 -352.274 482.732 -357.538 478.827 -347.689 473.538 -352.274"/><text x="538.843" y="-263.3" fill="#000" font-family="Times,serif" font-size="14" text-anchor="middle">has_property exactly 1</text></g><g id="node16" class="node"><title>rve</title><ellipse cx="1173.843" cy="-18" fill="#ffffe0" stroke="#000" rx="27" ry="18"/><text x="1173.843" y="-14.3" fill="#000" font-family="Bitstream Vera Sans" font-size="14" text-anchor="middle">rve</text></g><g id="node17" class="node"><title>welded_component</title><ellipse cx="1026.843" cy="-18" fill="#ffffe0" stroke="#000" rx="102.082" ry="18"/><text x="1026.843" y="-14.3" fill="#000" font-family="Bitstream Vera Sans" font-size="14" text-anchor="middle">welded_component</text></g><g id="edge21" class="edge"><title>welded_component-&gt;load_curve</title><path fill="none" stroke="#00f" d="M966.7775,-32.5948C947.4386,-38.5917 929.5166,-46.0062 923.8426,-54 906.6219,-78.261 924.1176,-110.8825 941.0763,-133.2917"/><polygon fill="#00f" stroke="#00f" points="938.513 -135.692 947.476 -141.341 943.992 -131.336 938.513 -135.692"/><text x="1012.843" y="-57.8" fill="#000" font-family="Times,serif" font-size="14" text-anchor="middle">has_property exactly 1</text></g><g id="edge20" class="edge"><title>welded_component-&gt;boundary</title><path fill="none" stroke="#00f" d="M1082.3136,-33.3445C1091.6419,-38.4143 1100.1349,-45.1267 1105.8426,-54 1110.1456,-60.6896 1110.6106,-68.892 1109.3862,-76.7467"/><polygon fill="#00f" stroke="#00f" points="1105.924 -76.174 1106.984 -86.716 1112.729 -77.814 1105.924 -76.174"/><text x="1235.843" y="-57.8" fill="#000" font-family="Times,serif" font-size="14" text-anchor="middle">has_spatial_direct_part exactly 2</text></g><g id="edge22" class="edge"><title>interface-&gt;area</title><path fill="none" stroke="#00f" d="M1080.9563,-219.2089C1116.6593,-224.8488 1160.6166,-234.5221 1171.8426,-249 1194.497,-278.2169 1175.6779,-321.877 1159.313,-349.377"/><polygon fill="#00f" stroke="#00f" points="1156.234 -347.7 1153.921 -358.039 1162.177 -351.399 1156.234 -347.7"/><text x="1270.843" y="-263.3" fill="#000" font-family="Times,serif" font-size="14" text-anchor="middle">has_property exactly 1</text></g><g id="edge23" class="edge"><title>interface-&gt;traction_separation</title><path fill="none" stroke="#00f" d="M1008.7067,-229.3027C1002.7304,-234.8067 997.0743,-241.4866 993.8426,-249 987.5205,-263.698 987.8239,-270.1752 993.8426,-285 995.3489,-288.7102 997.4416,-292.2481 999.8617,-295.556"/><polygon fill="#00f" stroke="#00f" points="997.268 -297.909 1006.405 -303.272 1002.607 -293.381 997.268 -297.909"/><text x="1082.843" y="-263.3" fill="#000" font-family="Times,serif" font-size="14" text-anchor="middle">has_property exactly 1</text></g></g></svg>