<svg xmlns="http://www.w3.org/2000/svg" xmlns:xlink="http://www.w3.org/1999/xlink" width="1588pt" height="131pt" viewBox="0 0 1587.84 131"><g id="graph0" class="graph" transform="scale(1 1) rotate(0) translate(4 127)"><title>G</title><polygon fill="#fff" stroke="transparent" points="-4 4 -4 -127 1583.843 -127 1583.843 4 -4 4"/><g id="node1" class="node"><title>integer</title><ellipse cx="83.843" cy="-105" fill="#ffffe0" stroke="#000" rx="44.393" ry="18"/><text x="83.843" y="-101.3" fill="#000" font-family="Bitstream Vera Sans" font-size="14" text-anchor="middle">integer</text></g><g id="node2" class="node"><title>real</title><ellipse cx="776.843" cy="-105" fill="#ffffe0" stroke="#000" rx="28.695" ry="18"/><text x="776.843" y="-101.3" fill="#000" font-family="Bitstream Vera Sans" font-size="14" text-anchor="middle">real</text></g><g id="node3" class="node"><title>string</title><ellipse cx="1431.843" cy="-105" fill="#ffffe0" stroke="#000" rx="37.093" ry="18"/><text x="1431.843" y="-101.3" fill="#000" font-family="Bitstream Vera Sans" font-size="14" text-anchor="middle">string</text></g><g id="node4" class="node"><title>atomic_number</title><ellipse cx="83.843" cy="-18" fill="#ffffe0" stroke="#000" rx="83.685" ry="18"/><text x="83.843" y="-14.3" fill="#000" font-family="Bitstream Vera Sans" font-size="14" text-anchor="middle">atomic_number</text></g><g id="edge1" class="edge"><title>atomic_number-&gt;integer</title><path fill="none" stroke="#00f" d="M83.8426,-36.0265C83.8426,-47.8082 83.8426,-63.4393 83.8426,-76.8419"/><polygon fill="#00f" stroke="#00f" points="80.343 -76.997 83.843 -86.997 87.343 -76.997 80.343 -76.997"/><text x="157.843" y="-57.8" fill="#000" font-family="Times,serif" font-size="14" text-anchor="middle">has_type exactly 1</text></g><g id="node5" class="node"><title>position</title><ellipse cx="254.843" cy="-18" fill="#ffffe0" stroke="#000" rx="47.392" ry="18"/><text x="254.843" y="-14.3" fill="#000" font-family="Bitstream Vera Sans" font-size="14" text-anchor="middle">position</text></g><g id="edge2" class="edge"><title>position-&gt;real</title><path fill="none" stroke="#00f" d="M261.2048,-36.0272C266.2719,-47.5276 274.5738,-61.6143 286.8426,-69 325.0775,-92.0173 628.2712,-101.4604 737.6611,-104.1405"/><polygon fill="#00f" stroke="#00f" points="737.847 -107.646 747.927 -104.386 738.014 -100.648 737.847 -107.646"/><text x="360.843" y="-57.8" fill="#000" font-family="Times,serif" font-size="14" text-anchor="middle">has_type exactly 3</text></g><g id="node6" class="node"><title>area</title><ellipse cx="425.843" cy="-18" fill="#ffffe0" stroke="#000" rx="32.494" ry="18"/><text x="425.843" y="-14.3" fill="#000" font-family="Bitstream Vera Sans" font-size="14" text-anchor="middle">area</text></g><g id="edge3" class="edge"><title>area-&gt;real</title><path fill="none" stroke="#00f" d="M430.6522,-36.0614C434.6604,-47.4227 441.5764,-61.3374 452.8426,-69 475.9918,-84.7449 656.913,-97.6572 737.8883,-102.7096"/><polygon fill="#00f" stroke="#00f" points="737.971 -106.221 748.167 -103.342 738.401 -99.234 737.971 -106.221"/><text x="526.843" y="-57.8" fill="#000" font-family="Times,serif" font-size="14" text-anchor="middle">has_type exactly 1</text></g><g id="node7" class="node"><title>stiffness_tensor</title><ellipse cx="596.843" cy="-18" fill="#ffffe0" stroke="#000" rx="83.685" ry="18"/><text x="596.843" y="-14.3" fill="#000" font-family="Bitstream Vera Sans" font-size="14" text-anchor="middle">stiffness_tensor</text></g><g id="edge4" class="edge"><title>stiffness_tensor-&gt;real</title><path fill="none" stroke="#00f" d="M599.173,-36.0391C601.541,-47.0959 606.2995,-60.6792 615.8426,-69 633.8534,-84.7039 696.7841,-95.2305 738.426,-100.6572"/><polygon fill="#00f" stroke="#00f" points="738.155 -104.151 748.514 -101.927 739.029 -97.206 738.155 -104.151"/><text x="694.343" y="-57.8" fill="#000" font-family="Times,serif" font-size="14" text-anchor="middle">has_type exactly 36</text></g><g id="node8" class="node"><title>lattice_vector</title><ellipse cx="776.843" cy="-18" fill="#ffffe0" stroke="#000" rx="73.387" ry="18"/><text x="776.843" y="-14.3" fill="#000" font-family="Bitstream Vera Sans" font-size="14" text-anchor="middle">lattice_vector</text></g><g id="edge5" class="edge"><title>lattice_vector-&gt;real</title><path fill="none" stroke="#00f" d="M776.8426,-36.0265C776.8426,-47.8082 776.8426,-63.4393 776.8426,-76.8419"/><polygon fill="#00f" stroke="#00f" points="773.343 -76.997 776.843 -86.997 780.343 -76.997 773.343 -76.997"/><text x="850.843" y="-57.8" fill="#000" font-family="Times,serif" font-size="14" text-anchor="middle">has_type exactly 3</text></g><g id="node9" class="node"><title>spacegroup</title><ellipse cx="1431.843" cy="-18" fill="#ffffe0" stroke="#000" rx="65.789" ry="18"/><text x="1431.843" y="-14.3" fill="#000" font-family="Bitstream Vera Sans" font-size="14" text-anchor="middle">spacegroup</text></g><g id="edge6" class="edge"><title>spacegroup-&gt;string</title><path fill="none" stroke="#00f" d="M1431.8426,-36.0265C1431.8426,-47.8082 1431.8426,-63.4393 1431.8426,-76.8419"/><polygon fill="#00f" stroke="#00f" points="1428.343 -76.997 1431.843 -86.997 1435.343 -76.997 1428.343 -76.997"/><text x="1505.843" y="-57.8" fill="#000" font-family="Times,serif" font-size="14" text-anchor="middle">has_type exactly 1</text></g><g id="node10" class="node"><title>plasticity</title><ellipse cx="934.843" cy="-18" fill="#ffffe0" stroke="#000" rx="51.991" ry="18"/><text x="934.843" y="-14.3" fill="#000" font-family="Bitstream Vera Sans" font-size="14" text-anchor="middle">plasticity</text></g><g id="edge7" class="edge"><title>plasticity-&gt;real</title><path fill="none" stroke="#00f" d="M936.2731,-36.2169C936.1076,-47.0613 933.9687,-60.3503 925.8426,-69 910.9138,-84.8906 854.0525,-95.1878 815.0541,-100.5417"/><polygon fill="#00f" stroke="#00f" points="814.526 -97.081 805.07 -101.859 815.442 -104.021 814.526 -97.081"/><text x="994.343" y="-57.8" fill="#000" font-family="Times,serif" font-size="14" text-anchor="middle">has_type min 2</text></g><g id="node11" class="node"><title>traction_separation</title><ellipse cx="1105.843" cy="-18" fill="#ffffe0" stroke="#000" rx="100.983" ry="18"/><text x="1105.843" y="-14.3" fill="#000" font-family="Bitstream Vera Sans" font-size="14" text-anchor="middle">traction_separation</text></g><g id="edge8" class="edge"><title>traction_separation-&gt;real</title><path fill="none" stroke="#00f" d="M1094.469,-36.1601C1086.2976,-47.5631 1074.2134,-61.4871 1059.8426,-69 1018.2839,-90.7265 883.3542,-100.0087 815.9313,-103.3687"/><polygon fill="#00f" stroke="#00f" points="815.536 -99.883 805.715 -103.858 815.871 -106.876 815.536 -99.883"/><text x="1140.343" y="-57.8" fill="#000" font-family="Times,serif" font-size="14" text-anchor="middle">has_type min 4</text></g><g id="node12" class="node"><title>load_curve</title><ellipse cx="1285.843" cy="-18" fill="#ffffe0" stroke="#000" rx="61.99" ry="18"/><text x="1285.843" y="-14.3" fill="#000" font-family="Bitstream Vera Sans" font-size="14" text-anchor="middle">load_curve</text></g><g id="edge9" class="edge"><title>load_curve-&gt;real</title><path fill="none" stroke="#00f" d="M1265.2363,-35.1308C1249.8804,-46.8537 1227.8464,-61.5705 1205.8426,-69 1134.1502,-93.2068 907.4854,-101.6425 815.8494,-104.1116"/><polygon fill="#00f" stroke="#00f" points="815.524 -100.619 805.618 -104.377 815.705 -107.617 815.524 -100.619"/><text x="1297.343" y="-57.8" fill="#000" font-family="Times,serif" font-size="14" text-anchor="middle">has_type min 4</text></g></g></svg>