<svg xmlns="http://www.w3.org/2000/svg" xmlns:xlink="http://www.w3.org/1999/xlink" width="2116" height="305pt" viewBox="0 0 1587.09 305"><g id="graph0" class="graph" transform="scale(1 1) rotate(0) translate(4 301)"><title>G</title><polygon fill="#fff" stroke="transparent" points="-4 4 -4 -301 1583.09 -301 1583.09 4 -4 4"/><g id="node1" class="node"><title>SI_unit</title><ellipse cx="383.446" cy="-279" fill="#ffffe0" stroke="#000" rx="42.494" ry="18"/><text x="383.446" y="-275.3" fill="#000" font-family="Bitstream Vera Sans" font-size="14" text-anchor="middle">SI_unit</text></g><g id="node2" class="node"><title>m</title><ellipse cx="215.446" cy="-192" fill="#ffffe0" stroke="#000" rx="27" ry="18"/><text x="215.446" y="-188.3" fill="#000" font-family="Bitstream Vera Sans" font-size="14" text-anchor="middle">m</text></g><g id="edge1" class="edge"><title>m-&gt;SI_unit</title><path fill="none" stroke="#000" d="M237.0649,-203.1956C264.9308,-217.6262 313.7792,-242.9227 347.328,-260.2961"/><polygon fill="none" stroke="#000" points="345.865 -263.48 356.355 -264.971 349.084 -257.264 345.865 -263.48"/><text x="324.446" y="-231.8" fill="#000" font-family="Times,serif" font-size="14" text-anchor="middle">is_a</text></g><g id="node3" class="node"><title>m²</title><ellipse cx="383.446" cy="-192" fill="#ffffe0" stroke="#000" rx="27" ry="18"/><text x="383.446" y="-188.3" fill="#000" font-family="Bitstream Vera Sans" font-size="14" text-anchor="middle">m²</text></g><g id="edge2" class="edge"><title>m²-&gt;SI_unit</title><path fill="none" stroke="#000" d="M383.4458,-210.0265C383.4458,-221.8082 383.4458,-237.4393 383.4458,-250.8419"/><polygon fill="none" stroke="#000" points="379.946 -250.997 383.446 -260.997 386.946 -250.997 379.946 -250.997"/><text x="397.446" y="-231.8" fill="#000" font-family="Times,serif" font-size="14" text-anchor="middle">is_a</text></g><g id="node4" class="node"><title>Pa</title><ellipse cx="801.446" cy="-192" fill="#ffffe0" stroke="#000" rx="27" ry="18"/><text x="801.446" y="-188.3" fill="#000" font-family="Bitstream Vera Sans" font-size="14" text-anchor="middle">Pa</text></g><g id="edge3" class="edge"><title>Pa-&gt;SI_unit</title><path fill="none" stroke="#000" d="M775.6135,-197.3766C707.1433,-211.6276 520.1886,-250.5392 431.4384,-269.0111"/><polygon fill="none" stroke="#000" points="430.704 -265.589 421.627 -271.053 432.131 -272.442 430.704 -265.589"/><text x="631.446" y="-231.8" fill="#000" font-family="Times,serif" font-size="14" text-anchor="middle">is_a</text></g><g id="node5" class="node"><title>atomic_number</title><ellipse cx="1346.446" cy="-18" fill="#ffffe0" stroke="#000" rx="83.685" ry="18"/><text x="1346.446" y="-14.3" fill="#000" font-family="Bitstream Vera Sans" font-size="14" text-anchor="middle">atomic_number</text></g><g id="node6" class="node"><title>position</title><ellipse cx="47.446" cy="-105" fill="#ffffe0" stroke="#000" rx="47.392" ry="18"/><text x="47.446" y="-101.3" fill="#000" font-family="Bitstream Vera Sans" font-size="14" text-anchor="middle">position</text></g><g id="edge7" class="edge"><title>position-&gt;m</title><path fill="none" stroke="#00f" d="M49.8249,-122.9838C52.2123,-134.0185 56.9741,-147.598 66.4458,-156 82.869,-170.5685 140.0121,-181.3116 178.5667,-187.109"/><polygon fill="#00f" stroke="#00f" points="178.499 -190.636 188.899 -188.612 179.507 -183.709 178.499 -190.636"/><text x="138.946" y="-144.8" fill="#000" font-family="Times,serif" font-size="14" text-anchor="middle">has_unit exactly 1</text></g><g id="node7" class="node"><title>area</title><ellipse cx="383.446" cy="-105" fill="#ffffe0" stroke="#000" rx="32.494" ry="18"/><text x="383.446" y="-101.3" fill="#000" font-family="Bitstream Vera Sans" font-size="14" text-anchor="middle">area</text></g><g id="edge8" class="edge"><title>area-&gt;m²</title><path fill="none" stroke="#00f" d="M383.4458,-123.0265C383.4458,-134.8082 383.4458,-150.4393 383.4458,-163.8419"/><polygon fill="#00f" stroke="#00f" points="379.946 -163.997 383.446 -173.997 386.946 -163.997 379.946 -163.997"/><text x="455.946" y="-144.8" fill="#000" font-family="Times,serif" font-size="14" text-anchor="middle">has_unit exactly 1</text></g><g id="node8" class="node"><title>pressure</title><ellipse cx="1107.446" cy="-105" fill="#ffffe0" stroke="#000" rx="51.991" ry="18"/><text x="1107.446" y="-101.3" fill="#000" font-family="Bitstream Vera Sans" font-size="14" text-anchor="middle">pressure</text></g><g id="edge9" class="edge"><title>pressure-&gt;Pa</title><path fill="none" stroke="#00f" d="M1067.127,-116.4632C1006.5004,-133.7002 892.9059,-165.9966 835.9125,-182.2006"/><polygon fill="#00f" stroke="#00f" points="834.944 -178.837 826.282 -184.939 836.858 -185.57 834.944 -178.837"/><text x="1044.946" y="-144.8" fill="#000" font-family="Times,serif" font-size="14" text-anchor="middle">has_unit exactly 1</text></g><g id="node9" class="node"><title>stiffness_tensor</title><ellipse cx="724.446" cy="-18" fill="#ffffe0" stroke="#000" rx="83.685" ry="18"/><text x="724.446" y="-14.3" fill="#000" font-family="Bitstream Vera Sans" font-size="14" text-anchor="middle">stiffness_tensor</text></g><g id="edge10" class="edge"><title>stiffness_tensor-&gt;Pa</title><path fill="none" stroke="#00f" d="M720.415,-36.0138C716.4844,-57.6982 712.7642,-94.7225 725.4458,-123 735.1334,-144.6015 755.232,-162.3643 772.3279,-174.4555"/><polygon fill="#00f" stroke="#00f" points="770.675 -177.563 780.923 -180.252 774.589 -171.759 770.675 -177.563"/><text x="797.946" y="-101.3" fill="#000" font-family="Times,serif" font-size="14" text-anchor="middle">has_unit exactly 1</text></g><g id="edge4" class="edge"><title>stiffness_tensor-&gt;pressure</title><path fill="none" stroke="#000" d="M785.7293,-30.355C849.7397,-43.4898 952.9602,-65.3191 1041.4458,-87 1046.507,-88.2401 1051.7721,-89.5839 1057.0224,-90.9593"/><polygon fill="none" stroke="#000" points="1056.48 -94.437 1067.043 -93.624 1058.279 -87.672 1056.48 -94.437"/><text x="977.446" y="-57.8" fill="#000" font-family="Times,serif" font-size="14" text-anchor="middle">is_a</text></g><g id="node10" class="node"><title>traction_separation</title><ellipse cx="977.446" cy="-18" fill="#ffffe0" stroke="#000" rx="100.983" ry="18"/><text x="977.446" y="-14.3" fill="#000" font-family="Bitstream Vera Sans" font-size="14" text-anchor="middle">traction_separation</text></g><g id="edge11" class="edge"><title>traction_separation-&gt;Pa</title><path fill="none" stroke="#00f" d="M956.4888,-35.7929C940.858,-49.3544 919.2278,-68.7449 901.4458,-87 886.7127,-102.125 884.8098,-107.5241 870.4458,-123 855.6094,-138.9848 838.246,-156.3416 824.6489,-169.6484"/><polygon fill="#00f" stroke="#00f" points="821.848 -167.49 817.126 -176.974 826.732 -172.505 821.848 -167.49"/><text x="973.946" y="-101.3" fill="#000" font-family="Times,serif" font-size="14" text-anchor="middle">has_unit exactly 1</text></g><g id="edge5" class="edge"><title>traction_separation-&gt;pressure</title><path fill="none" stroke="#000" d="M1003.4408,-35.3967C1023.9805,-49.1425 1052.766,-68.4066 1074.8478,-83.1844"/><polygon fill="none" stroke="#000" points="1072.995 -86.156 1083.252 -88.809 1076.888 -80.338 1072.995 -86.156"/><text x="1063.446" y="-57.8" fill="#000" font-family="Times,serif" font-size="14" text-anchor="middle">is_a</text></g><g id="node11" class="node"><title>load_curve</title><ellipse cx="1182.446" cy="-18" fill="#ffffe0" stroke="#000" rx="61.99" ry="18"/><text x="1182.446" y="-14.3" fill="#000" font-family="Bitstream Vera Sans" font-size="14" text-anchor="middle">load_curve</text></g><g id="edge12" class="edge"><title>load_curve-&gt;Pa</title><path fill="none" stroke="#00f" d="M1184.5859,-35.9986C1186.2915,-58.3369 1186.0091,-96.6924 1168.4458,-123 1154.2739,-144.2277 1145.3144,-146.9588 1121.4458,-156 1070.4943,-175.3 911.6247,-186.08 838.7078,-190.1256"/><polygon fill="#00f" stroke="#00f" points="838.392 -186.637 828.596 -190.674 838.771 -193.627 838.392 -186.637"/><text x="1253.946" y="-101.3" fill="#000" font-family="Times,serif" font-size="14" text-anchor="middle">has_unit exactly 1</text></g><g id="edge6" class="edge"><title>load_curve-&gt;pressure</title><path fill="none" stroke="#000" d="M1167.2684,-35.6057C1156.3195,-48.3065 1141.3789,-65.6376 1129.168,-79.8023"/><polygon fill="none" stroke="#000" points="1126.223 -77.858 1122.345 -87.717 1131.525 -82.428 1126.223 -77.858"/><text x="1162.446" y="-57.8" fill="#000" font-family="Times,serif" font-size="14" text-anchor="middle">is_a</text></g><g id="node12" class="node"><title>lattice_vector</title><ellipse cx="215.446" cy="-105" fill="#ffffe0" stroke="#000" rx="73.387" ry="18"/><text x="215.446" y="-101.3" fill="#000" font-family="Bitstream Vera Sans" font-size="14" text-anchor="middle">lattice_vector</text></g><g id="edge13" class="edge"><title>lattice_vector-&gt;m</title><path fill="none" stroke="#00f" d="M215.4458,-123.0265C215.4458,-134.8082 215.4458,-150.4393 215.4458,-163.8419"/><polygon fill="#00f" stroke="#00f" points="211.946 -163.997 215.446 -173.997 218.946 -163.997 211.946 -163.997"/><text x="287.946" y="-144.8" fill="#000" font-family="Times,serif" font-size="14" text-anchor="middle">has_unit exactly 1</text></g><g id="node13" class="node"><title>spacegroup</title><ellipse cx="1513.446" cy="-18" fill="#ffffe0" stroke="#000" rx="65.789" ry="18"/><text x="1513.446" y="-14.3" fill="#000" font-family="Bitstream Vera Sans" font-size="14" text-anchor="middle">spacegroup</text></g><g id="node14" class="node"><title>plasticity</title><ellipse cx="551.446" cy="-105" fill="#ffffe0" stroke="#000" rx="51.991" ry="18"/><text x="551.446" y="-101.3" fill="#000" font-family="Bitstream Vera Sans" font-size="14" text-anchor="middle">plasticity</text></g><g id="edge14" class="edge"><title>plasticity-&gt;Pa</title><path fill="none" stroke="#00f" d="M546.4759,-123.1378C544.6838,-133.9524 544.7078,-147.2379 552.4458,-156 566.271,-171.655 698.4334,-184.0129 764.3869,-189.2616"/><polygon fill="#00f" stroke="#00f" points="764.133 -192.752 774.375 -190.042 764.678 -185.774 764.133 -192.752"/><text x="624.946" y="-144.8" fill="#000" font-family="Times,serif" font-size="14" text-anchor="middle">has_unit exactly 1</text></g></g></svg>