<svg xmlns="http://www.w3.org/2000/svg" xmlns:xlink="http://www.w3.org/1999/xlink" width="2107pt" height="601pt" viewBox="0 0 2107.24 600.82"><g id="graph0" class="graph" transform="scale(1 1) rotate(0) translate(4 596.8151)"><title>G</title><polygon fill="#fff" stroke="transparent" points="-4 4 -4 -596.815 2103.236 -596.815 2103.236 4 -4 4"/><g id="node1" class="node"><title>atomic_number</title><ellipse cx="1997.196" cy="-60.815" fill="#ffffe0" stroke="#000" rx="83.685" ry="18"/><text x="1997.196" y="-57.115" fill="#000" font-family="Bitstream Vera Sans" font-size="14" text-anchor="middle">atomic_number</text></g><g id="node3" class="node"><title>integer</title><ellipse cx="1522.662" cy="-60.815" fill="#ffffe0" stroke="#000" rx="44.393" ry="18"/><text x="1522.662" y="-57.115" fill="#000" font-family="Bitstream Vera Sans" font-size="14" text-anchor="middle">integer</text></g><g id="edge7" class="edge"><title>atomic_number-&gt;integer</title><path fill="none" stroke="#00f" d="M1913.1782,-60.8151C1816.1701,-60.8151 1659.4236,-60.8151 1577.1185,-60.8151"/><polygon fill="#00f" stroke="#00f" points="1576.977 -57.315 1566.977 -60.815 1576.977 -64.315 1576.977 -57.315"/><text x="1751.155" y="-64.615" fill="#000" font-family="Times,serif" font-size="14" text-anchor="middle">has_type exactly 1</text></g><g id="node2" class="node"><title>position</title><ellipse cx="468.187" cy="-491.815" fill="#ffffe0" stroke="#000" rx="47.392" ry="18"/><text x="468.187" y="-488.115" fill="#000" font-family="Bitstream Vera Sans" font-size="14" text-anchor="middle">position</text></g><g id="node4" class="node"><title>real</title><ellipse cx="177.09" cy="-322.815" fill="#ffffe0" stroke="#000" rx="28.695" ry="18"/><text x="177.09" y="-319.115" fill="#000" font-family="Bitstream Vera Sans" font-size="14" text-anchor="middle">real</text></g><g id="edge9" class="edge"><title>position-&gt;real</title><path fill="none" stroke="#00f" d="M423.9651,-485.0147C355.6187,-474.3404 231.3413,-454.2099 223.6874,-447.8151 194.8469,-423.7189 183.8462,-379.947 179.6569,-351.1244"/><polygon fill="#00f" stroke="#00f" points="183.089 -350.364 178.362 -340.882 176.144 -351.242 183.089 -350.364"/><text x="297.687" y="-479.615" fill="#000" font-family="Times,serif" font-size="14" text-anchor="middle">has_type exactly 3</text></g><g id="node7" class="node"><title>m</title><ellipse cx="177.09" cy="-507.815" fill="#ffffe0" stroke="#000" rx="27" ry="18"/><text x="177.09" y="-504.115" fill="#000" font-family="Bitstream Vera Sans" font-size="14" text-anchor="middle">m</text></g><g id="edge8" class="edge"><title>position-&gt;m</title><path fill="none" stroke="#00f" d="M421.0941,-494.4035C363.437,-497.5726 266.9756,-502.8745 214.2615,-505.772"/><polygon fill="#00f" stroke="#00f" points="213.809 -502.291 204.016 -506.335 214.193 -509.281 213.809 -502.291"/><text x="297.687" y="-508.615" fill="#000" font-family="Times,serif" font-size="14" text-anchor="middle">has_unit exactly 1</text></g><g id="node5" class="node"><title>string</title><ellipse cx="1115.17" cy="-269.815" fill="#ffffe0" stroke="#000" rx="37.093" ry="18"/><text x="1115.17" y="-266.115" fill="#000" font-family="Bitstream Vera Sans" font-size="14" text-anchor="middle">string</text></g><g id="node6" class="node"><title>SI_unit</title><ellipse cx="42.246" cy="-216.815" fill="#ffffe0" stroke="#000" rx="42.494" ry="18"/><text x="42.246" y="-213.115" fill="#000" font-family="Bitstream Vera Sans" font-size="14" text-anchor="middle">SI_unit</text></g><g id="edge1" class="edge"><title>m-&gt;SI_unit</title><path fill="none" stroke="#000" d="M169.0587,-490.4832C146.4476,-441.6872 82.1242,-302.8739 54.7863,-243.8771"/><polygon fill="none" stroke="#000" points="57.958 -242.397 50.578 -234.795 51.607 -245.34 57.958 -242.397"/><text x="116.493" y="-408.615" fill="#000" font-family="Times,serif" font-size="14" text-anchor="middle">is_a</text></g><g id="node8" class="node"><title>m²</title><ellipse cx="177.09" cy="-137.815" fill="#ffffe0" stroke="#000" rx="27" ry="18"/><text x="177.09" y="-134.115" fill="#000" font-family="Bitstream Vera Sans" font-size="14" text-anchor="middle">m²</text></g><g id="edge2" class="edge"><title>m²-&gt;SI_unit</title><path fill="none" stroke="#000" d="M156.6101,-149.8135C135.35,-162.269 101.7273,-181.9673 76.4302,-196.7879"/><polygon fill="none" stroke="#000" points="74.384 -193.93 67.525 -202.005 77.923 -199.97 74.384 -193.93"/><text x="116.493" y="-182.615" fill="#000" font-family="Times,serif" font-size="14" text-anchor="middle">is_a</text></g><g id="node9" class="node"><title>Pa</title><ellipse cx="177.09" cy="-216.815" fill="#ffffe0" stroke="#000" rx="27" ry="18"/><text x="177.09" y="-213.115" fill="#000" font-family="Bitstream Vera Sans" font-size="14" text-anchor="middle">Pa</text></g><g id="edge3" class="edge"><title>Pa-&gt;SI_unit</title><path fill="none" stroke="#000" d="M149.8023,-216.8151C134.0238,-216.8151 113.6345,-216.8151 94.8575,-216.8151"/><polygon fill="none" stroke="#000" points="94.631 -213.315 84.631 -216.815 94.631 -220.315 94.631 -213.315"/><text x="116.493" y="-220.615" fill="#000" font-family="Times,serif" font-size="14" text-anchor="middle">is_a</text></g><g id="node10" class="node"><title>area</title><ellipse cx="468.187" cy="-125.815" fill="#ffffe0" stroke="#000" rx="32.494" ry="18"/><text x="468.187" y="-122.115" fill="#000" font-family="Bitstream Vera Sans" font-size="14" text-anchor="middle">area</text></g><g id="edge11" class="edge"><title>area-&gt;real</title><path fill="none" stroke="#00f" d="M435.5854,-126.1657C384.0105,-128.4721 283.349,-140.3471 223.6874,-195.8151 222.7269,-196.7081 200.402,-258.237 187.0073,-295.3137"/><polygon fill="#00f" stroke="#00f" points="183.595 -294.458 183.491 -305.052 190.179 -296.835 183.595 -294.458"/><text x="297.687" y="-199.615" fill="#000" font-family="Times,serif" font-size="14" text-anchor="middle">has_type exactly 1</text></g><g id="edge10" class="edge"><title>area-&gt;m²</title><path fill="none" stroke="#00f" d="M438.2859,-118.6216C391.6537,-108.645 299.1309,-93.8552 223.6874,-112.8151 217.3769,-114.401 210.9889,-117.025 205.0501,-119.9907"/><polygon fill="#00f" stroke="#00f" points="203.27 -116.975 196.163 -124.832 206.619 -123.122 203.27 -116.975"/><text x="297.687" y="-116.615" fill="#000" font-family="Times,serif" font-size="14" text-anchor="middle">has_unit exactly 1</text></g><g id="node11" class="node"><title>pressure</title><ellipse cx="468.187" cy="-230.815" fill="#ffffe0" stroke="#000" rx="51.991" ry="18"/><text x="468.187" y="-227.115" fill="#000" font-family="Bitstream Vera Sans" font-size="14" text-anchor="middle">pressure</text></g><g id="edge13" class="edge"><title>pressure-&gt;real</title><path fill="none" stroke="#00f" d="M416.7872,-233.7851C349.9841,-237.9946 239.9083,-246.2564 223.6874,-255.8151 208.0666,-265.0201 196.4191,-281.7642 188.6759,-296.21"/><polygon fill="#00f" stroke="#00f" points="185.488 -294.759 184.149 -305.269 191.75 -297.888 185.488 -294.759"/><text x="297.687" y="-259.615" fill="#000" font-family="Times,serif" font-size="14" text-anchor="middle">has_type exactly 1</text></g><g id="edge12" class="edge"><title>pressure-&gt;Pa</title><path fill="none" stroke="#00f" d="M420.7014,-223.1808C405.1276,-221.0085 387.7082,-218.9307 371.6874,-217.8151 317.043,-214.0098 253.5589,-214.6235 214.351,-215.5851"/><polygon fill="#00f" stroke="#00f" points="214.108 -212.09 204.204 -215.855 214.294 -219.088 214.108 -212.09"/><text x="297.687" y="-221.615" fill="#000" font-family="Times,serif" font-size="14" text-anchor="middle">has_unit exactly 1</text></g><g id="node12" class="node"><title>stiffness_tensor</title><ellipse cx="711.428" cy="-337.815" fill="#ffffe0" stroke="#000" rx="83.685" ry="18"/><text x="711.428" y="-334.115" fill="#000" font-family="Bitstream Vera Sans" font-size="14" text-anchor="middle">stiffness_tensor</text></g><g id="edge15" class="edge"><title>stiffness_tensor-&gt;real</title><path fill="none" stroke="#00f" d="M637.0289,-346.218C622.3386,-347.8044 607.0313,-349.4064 592.6874,-350.8151 429.463,-366.8448 382.1049,-389.2774 223.6874,-346.8151 217.944,-345.2756 212.0967,-342.9584 206.5727,-340.3607"/><polygon fill="#00f" stroke="#00f" points="208.155 -337.239 197.657 -335.812 204.974 -343.474 208.155 -337.239"/><text x="468.187" y="-374.615" fill="#000" font-family="Times,serif" font-size="14" text-anchor="middle">has_type exactly 36</text></g><g id="edge14" class="edge"><title>stiffness_tensor-&gt;Pa</title><path fill="none" stroke="#00f" d="M628.4713,-334.9743C507.6188,-329.529 290.2887,-314.4116 223.6874,-274.8151 210.5933,-267.0302 199.6741,-254.1084 191.7051,-242.435"/><polygon fill="#00f" stroke="#00f" points="194.546 -240.382 186.199 -233.857 188.656 -244.163 194.546 -240.382"/><text x="468.187" y="-333.615" fill="#000" font-family="Times,serif" font-size="14" text-anchor="middle">has_unit exactly 1</text></g><g id="edge4" class="edge"><title>stiffness_tensor-&gt;pressure</title><path fill="none" stroke="#000" d="M676.2614,-321.31C643.0308,-305.8318 591.7035,-282.228 546.6874,-262.8151 535.496,-257.9888 523.3306,-252.9364 511.9924,-248.3092"/><polygon fill="none" stroke="#000" points="513.285 -245.056 502.702 -244.537 510.651 -251.542 513.285 -245.056"/><text x="578.687" y="-286.615" fill="#000" font-family="Times,serif" font-size="14" text-anchor="middle">is_a</text></g><g id="node13" class="node"><title>traction_separation</title><ellipse cx="711.428" cy="-218.815" fill="#ffffe0" stroke="#000" rx="100.983" ry="18"/><text x="711.428" y="-215.115" fill="#000" font-family="Bitstream Vera Sans" font-size="14" text-anchor="middle">traction_separation</text></g><g id="edge17" class="edge"><title>traction_separation-&gt;real</title><path fill="none" stroke="#00f" d="M652.9045,-233.5476C621.5081,-241.2288 582.0945,-250.517 546.6874,-257.8151 426.1546,-282.659 282.269,-306.2291 215.1174,-316.8789"/><polygon fill="#00f" stroke="#00f" points="214.345 -313.457 205.014 -318.475 215.438 -320.372 214.345 -313.457"/><text x="468.187" y="-289.615" fill="#000" font-family="Times,serif" font-size="14" text-anchor="middle">has_type min 4</text></g><g id="edge16" class="edge"><title>traction_separation-&gt;Pa</title><path fill="none" stroke="#00f" d="M648.8182,-204.6713C618.2039,-198.4594 580.7077,-191.8874 546.6874,-188.8151 424.4096,-177.7722 279.1026,-198.7421 213.0122,-210.1412"/><polygon fill="#00f" stroke="#00f" points="212.345 -206.705 203.101 -211.882 213.556 -213.599 212.345 -206.705"/><text x="468.187" y="-192.615" fill="#000" font-family="Times,serif" font-size="14" text-anchor="middle">has_unit exactly 1</text></g><g id="edge5" class="edge"><title>traction_separation-&gt;pressure</title><path fill="none" stroke="#000" d="M614.2445,-223.6095C585.8663,-225.0095 555.6367,-226.5009 530.0852,-227.7614"/><polygon fill="none" stroke="#000" points="529.623 -224.28 519.808 -228.268 529.968 -231.271 529.623 -224.28"/><text x="578.687" y="-229.615" fill="#000" font-family="Times,serif" font-size="14" text-anchor="middle">is_a</text></g><g id="node14" class="node"><title>load_curve</title><ellipse cx="711.428" cy="-87.815" fill="#ffffe0" stroke="#000" rx="61.99" ry="18"/><text x="711.428" y="-84.115" fill="#000" font-family="Bitstream Vera Sans" font-size="14" text-anchor="middle">load_curve</text></g><g id="edge19" class="edge"><title>load_curve-&gt;real</title><path fill="none" stroke="#00f" d="M655.1823,-80.1664C540.092,-65.9027 283.5109,-41.6591 223.6874,-99.8151 200.5639,-122.294 213.2226,-212.4587 205.6874,-243.8151 201.4506,-261.4457 194.5852,-280.582 188.6431,-295.6044"/><polygon fill="#00f" stroke="#00f" points="185.235 -294.696 184.72 -305.278 191.722 -297.326 185.235 -294.696"/><text x="468.187" y="-72.615" fill="#000" font-family="Times,serif" font-size="14" text-anchor="middle">has_type min 4</text></g><g id="edge18" class="edge"><title>load_curve-&gt;Pa</title><path fill="none" stroke="#00f" d="M679.4796,-72.248C592.6456,-32.4326 350.3515,61.6506 223.6874,-60.8151 189.9633,-93.4214 221.2025,-120.5457 205.6874,-164.8151 202.5183,-173.8575 197.8777,-183.1927 193.2529,-191.4145"/><polygon fill="#00f" stroke="#00f" points="190.169 -189.755 188.117 -200.149 196.203 -193.303 190.169 -189.755"/><text x="468.187" y="-27.615" fill="#000" font-family="Times,serif" font-size="14" text-anchor="middle">has_unit exactly 1</text></g><g id="edge6" class="edge"><title>load_curve-&gt;pressure</title><path fill="none" stroke="#000" d="M668.1361,-100.6661C649.4939,-107.3702 628.0421,-116.7287 610.6874,-128.8151 576.0954,-152.9061 581.2726,-174.7142 546.6874,-198.8151 537.6276,-205.1284 527.1352,-210.4899 516.8281,-214.9151"/><polygon fill="none" stroke="#000" points="515.411 -211.713 507.461 -218.716 518.043 -218.199 515.411 -211.713"/><text x="578.687" y="-184.615" fill="#000" font-family="Times,serif" font-size="14" text-anchor="middle">is_a</text></g><g id="node15" class="node"><title>lattice_vector</title><ellipse cx="468.187" cy="-545.815" fill="#ffffe0" stroke="#000" rx="73.387" ry="18"/><text x="468.187" y="-542.115" fill="#000" font-family="Bitstream Vera Sans" font-size="14" text-anchor="middle">lattice_vector</text></g><g id="edge21" class="edge"><title>lattice_vector-&gt;real</title><path fill="none" stroke="#00f" d="M395.3007,-543.5376C327.9748,-540.7501 236.4845,-534.957 223.6874,-523.8151 210.6076,-512.427 190.6512,-403.2447 181.7072,-350.7433"/><polygon fill="#00f" stroke="#00f" points="185.136 -350.028 180.021 -340.75 178.234 -351.193 185.136 -350.028"/><text x="297.687" y="-545.615" fill="#000" font-family="Times,serif" font-size="14" text-anchor="middle">has_type exactly 3</text></g><g id="edge20" class="edge"><title>lattice_vector-&gt;m</title><path fill="none" stroke="#00f" d="M425.313,-560.4735C374.6686,-575.1862 289.0506,-591.7465 223.6874,-561.8151 210.7172,-555.8756 199.984,-544.3463 192.101,-533.4608"/><polygon fill="#00f" stroke="#00f" points="194.887 -531.332 186.402 -524.988 189.079 -535.239 194.887 -531.332"/><text x="297.687" y="-581.615" fill="#000" font-family="Times,serif" font-size="14" text-anchor="middle">has_unit exactly 1</text></g><g id="node16" class="node"><title>spacegroup</title><ellipse cx="1522.662" cy="-269.815" fill="#ffffe0" stroke="#000" rx="65.789" ry="18"/><text x="1522.662" y="-266.115" fill="#000" font-family="Bitstream Vera Sans" font-size="14" text-anchor="middle">spacegroup</text></g><g id="edge22" class="edge"><title>spacegroup-&gt;string</title><path fill="none" stroke="#00f" d="M1456.7384,-269.8151C1374.2961,-269.8151 1235.1783,-269.8151 1162.5414,-269.8151"/><polygon fill="#00f" stroke="#00f" points="1162.322 -266.315 1152.322 -269.815 1162.322 -273.315 1162.322 -266.315"/><text x="1321.17" y="-273.615" fill="#000" font-family="Times,serif" font-size="14" text-anchor="middle">has_type exactly 1</text></g><g id="node17" class="node"><title>plasticity</title><ellipse cx="468.187" cy="-437.815" fill="#ffffe0" stroke="#000" rx="51.991" ry="18"/><text x="468.187" y="-434.115" fill="#000" font-family="Bitstream Vera Sans" font-size="14" text-anchor="middle">plasticity</text></g><g id="edge24" class="edge"><title>plasticity-&gt;real</title><path fill="none" stroke="#00f" d="M416.891,-434.4757C349.9089,-429.7292 239.3059,-420.4212 223.6874,-409.8151 203.4086,-396.0441 191.2426,-370.4945 184.4549,-350.6317"/><polygon fill="#00f" stroke="#00f" points="187.72 -349.345 181.381 -340.856 181.042 -351.445 187.72 -349.345"/><text x="297.687" y="-433.615" fill="#000" font-family="Times,serif" font-size="14" text-anchor="middle">has_type min 2</text></g><g id="edge23" class="edge"><title>plasticity-&gt;Pa</title><path fill="none" stroke="#00f" d="M430.7165,-425.2453C417.3367,-420.0645 402.4299,-413.469 389.6874,-405.8151 380.7604,-400.4529 380.9123,-395.6469 371.6874,-390.8151 311.2243,-359.1454 273.1778,-396.8201 223.6874,-349.8151 205.3442,-332.393 213.9936,-319.7108 205.6874,-295.8151 199.6951,-278.5758 192.7287,-259.3158 187.1719,-244.1289"/><polygon fill="#00f" stroke="#00f" points="190.311 -242.522 183.579 -234.34 183.739 -244.934 190.311 -242.522"/><text x="297.687" y="-394.615" fill="#000" font-family="Times,serif" font-size="14" text-anchor="middle">has_unit exactly 1</text></g><g id="node18" class="node"><title>interface</title><ellipse cx="1115.17" cy="-215.815" fill="#ffffe0" stroke="#000" rx="51.991" ry="18"/><text x="1115.17" y="-212.115" fill="#000" font-family="Bitstream Vera Sans" font-size="14" text-anchor="middle">interface</text></g><g id="edge25" class="edge"><title>interface-&gt;area</title><path fill="none" stroke="#00f" d="M1066.8053,-209.0872C944.6204,-192.0904 625.0962,-147.6422 510.1468,-131.6519"/><polygon fill="#00f" stroke="#00f" points="510.378 -128.15 499.991 -130.239 509.414 -135.084 510.378 -128.15"/><text x="711.428" y="-175.615" fill="#000" font-family="Times,serif" font-size="14" text-anchor="middle">has_property exactly 1</text></g><g id="edge26" class="edge"><title>interface-&gt;traction_separation</title><path fill="none" stroke="#00f" d="M1062.8014,-216.2042C1002.2572,-216.6541 900.8954,-217.4072 822.5564,-217.9893"/><polygon fill="#00f" stroke="#00f" points="822.123 -214.492 812.15 -218.067 822.175 -221.492 822.123 -214.492"/><text x="919.17" y="-221.615" fill="#000" font-family="Times,serif" font-size="14" text-anchor="middle">has_property exactly 1</text></g><g id="node19" class="node"><title>crystal_unit_cell</title><ellipse cx="1522.662" cy="-330.815" fill="#ffffe0" stroke="#000" rx="84.485" ry="18"/><text x="1522.662" y="-327.115" fill="#000" font-family="Bitstream Vera Sans" font-size="14" text-anchor="middle">crystal_unit_cell</text></g><g id="edge29" class="edge"><title>crystal_unit_cell-&gt;stiffness_tensor</title><path fill="none" stroke="#00f" d="M1438.1416,-331.5444C1285.5575,-332.861 965.1681,-335.6256 805.7212,-337.0014"/><polygon fill="#00f" stroke="#00f" points="805.424 -333.504 795.455 -337.09 805.485 -340.503 805.424 -333.504"/><text x="1115.17" y="-338.615" fill="#000" font-family="Times,serif" font-size="14" text-anchor="middle">has_property exactly 1</text></g><g id="edge28" class="edge"><title>crystal_unit_cell-&gt;lattice_vector</title><path fill="none" stroke="#00f" d="M1481.0106,-346.4856C1420.7392,-368.6241 1305.3335,-409.0063 1204.1696,-432.8151 967.7829,-488.4483 682.0111,-523.2811 546.6226,-537.8833"/><polygon fill="#00f" stroke="#00f" points="545.921 -534.438 536.351 -538.983 546.667 -541.399 545.921 -534.438"/><text x="919.17" y="-504.615" fill="#000" font-family="Times,serif" font-size="14" text-anchor="middle">has_property exactly 3</text></g><g id="edge27" class="edge"><title>crystal_unit_cell-&gt;interface</title><path fill="none" stroke="#00f" d="M1465.3867,-317.5081C1450.701,-314.3752 1434.8937,-311.2448 1420.1696,-308.8151 1376.4647,-301.6031 1257.5664,-312.4456 1222.1696,-285.8151 1205.6138,-273.3595 1219.5464,-256.6998 1204.1696,-242.8151 1195.5494,-235.0314 1184.7471,-229.4902 1173.6694,-225.5458"/><polygon fill="#00f" stroke="#00f" points="1174.501 -222.138 1163.911 -222.474 1172.399 -228.815 1174.501 -222.138"/><text x="1321.17" y="-312.615" fill="#000" font-family="Times,serif" font-size="14" text-anchor="middle">has_space_slice some</text></g><g id="node20" class="node"><title>crystal</title><ellipse cx="1997.196" cy="-299.815" fill="#ffffe0" stroke="#000" rx="41.693" ry="18"/><text x="1997.196" y="-296.115" fill="#000" font-family="Bitstream Vera Sans" font-size="14" text-anchor="middle">crystal</text></g><g id="edge31" class="edge"><title>crystal-&gt;spacegroup</title><path fill="none" stroke="#00f" d="M1956.6768,-295.2667C1933.4291,-292.7819 1903.6787,-289.813 1877.1546,-287.8151 1781.102,-280.5798 1670.1836,-275.4693 1598.3644,-272.5863"/><polygon fill="#00f" stroke="#00f" points="1598.189 -269.077 1588.058 -272.177 1597.911 -276.071 1598.189 -269.077"/><text x="1751.155" y="-291.615" fill="#000" font-family="Times,serif" font-size="14" text-anchor="middle">has_property exactly 1</text></g><g id="edge30" class="edge"><title>crystal-&gt;crystal_unit_cell</title><path fill="none" stroke="#00f" d="M1955.9139,-302.5119C1880.0812,-307.4658 1716.9474,-318.1229 1613.915,-324.8538"/><polygon fill="#00f" stroke="#00f" points="1613.578 -321.368 1603.828 -325.513 1614.034 -328.353 1613.578 -321.368"/><text x="1751.155" y="-327.615" fill="#000" font-family="Times,serif" font-size="14" text-anchor="middle">has_spatial_direct_part only</text></g><g id="node21" class="node"><title>boundary</title><ellipse cx="1522.662" cy="-202.815" fill="#ffffe0" stroke="#000" rx="55.491" ry="18"/><text x="1522.662" y="-199.115" fill="#000" font-family="Bitstream Vera Sans" font-size="14" text-anchor="middle">boundary</text></g><g id="edge32" class="edge"><title>boundary-&gt;interface</title><path fill="none" stroke="#00f" d="M1467.2817,-204.5818C1391.6837,-206.9936 1256.5665,-211.3042 1177.5045,-213.8264"/><polygon fill="#00f" stroke="#00f" points="1177.088 -210.338 1167.205 -214.155 1177.311 -217.334 1177.088 -210.338"/><text x="1321.17" y="-215.615" fill="#000" font-family="Times,serif" font-size="14" text-anchor="middle">has_space_slice exactly 1</text></g><g id="node22" class="node"><title>phase</title><ellipse cx="1115.17" cy="-405.815" fill="#ffffe0" stroke="#000" rx="38.993" ry="18"/><text x="1115.17" y="-402.115" fill="#000" font-family="Bitstream Vera Sans" font-size="14" text-anchor="middle">phase</text></g><g id="edge33" class="edge"><title>phase-&gt;stiffness_tensor</title><path fill="none" stroke="#00f" d="M1078.2699,-399.6002C1012.6387,-388.5463 874.3739,-365.2591 787.5927,-350.643"/><polygon fill="#00f" stroke="#00f" points="787.977 -347.159 777.534 -348.949 786.814 -354.061 787.977 -347.159"/><text x="919.17" y="-390.615" fill="#000" font-family="Times,serif" font-size="14" text-anchor="middle">has_property exactly 1</text></g><g id="edge34" class="edge"><title>phase-&gt;plasticity</title><path fill="none" stroke="#00f" d="M1076.1549,-407.7447C967.7615,-413.1059 662.2806,-428.2151 530.2527,-434.7453"/><polygon fill="#00f" stroke="#00f" points="529.73 -431.267 519.915 -435.257 530.076 -438.258 529.73 -431.267"/><text x="711.428" y="-433.615" fill="#000" font-family="Times,serif" font-size="14" text-anchor="middle">has_property exactly 1</text></g><g id="node23" class="node"><title>rve</title><ellipse cx="1997.196" cy="-353.815" fill="#ffffe0" stroke="#000" rx="27" ry="18"/><text x="1997.196" y="-350.115" fill="#000" font-family="Bitstream Vera Sans" font-size="14" text-anchor="middle">rve</text></g><g id="node24" class="node"><title>welded_component</title><ellipse cx="1997.196" cy="-127.815" fill="#ffffe0" stroke="#000" rx="102.082" ry="18"/><text x="1997.196" y="-124.115" fill="#000" font-family="Bitstream Vera Sans" font-size="14" text-anchor="middle">welded_component</text></g><g id="edge36" class="edge"><title>welded_component-&gt;load_curve</title><path fill="none" stroke="#00f" d="M1896.5714,-124.6847C1646.1731,-116.8948 999.6842,-96.7826 783.2417,-90.0492"/><polygon fill="#00f" stroke="#00f" points="783.061 -86.542 772.957 -89.729 782.843 -93.539 783.061 -86.542"/><text x="1321.17" y="-113.615" fill="#000" font-family="Times,serif" font-size="14" text-anchor="middle">has_property exactly 1</text></g><g id="edge35" class="edge"><title>welded_component-&gt;boundary</title><path fill="none" stroke="#00f" d="M1920.9535,-139.8651C1826.7962,-154.7467 1668.5803,-179.7527 1582.6282,-193.3374"/><polygon fill="#00f" stroke="#00f" points="1581.845 -189.918 1572.514 -194.936 1582.938 -196.832 1581.845 -189.918"/><text x="1751.155" y="-189.615" fill="#000" font-family="Times,serif" font-size="14" text-anchor="middle">has_spatial_direct_part exactly 2</text></g></g></svg>